<?xml version="1.0" standalone="no"?>
<!DOCTYPE svg PUBLIC "-//W3C//DTD SVG 20010904//EN"
 "http://www.w3.org/TR/2001/REC-SVG-20010904/DTD/svg10.dtd">
<svg version="1.0" xmlns="http://www.w3.org/2000/svg"
 width="192.000000pt" height="192.000000pt" viewBox="0 0 192.000000 192.000000"
 preserveAspectRatio="xMidYMid meet">

<g transform="translate(0.000000,192.000000) scale(0.100000,-0.100000)"
fill="#000000" stroke="none">
<path d="M409 1706 c-186 -52 -332 -222 -361 -423 -27 -184 49 -522 178 -792
30 -63 53 -115 52 -116 -2 -1 -32 -9 -66 -18 -128 -35 -212 -97 -212 -157 0
-137 393 -237 730 -185 343 52 456 195 240 304 -33 16 -93 37 -135 47 l-75 18
25 42 c35 60 108 244 139 349 67 234 90 431 62 549 -65 274 -331 449 -577 382z
m255 -140 c72 -35 157 -127 187 -203 30 -75 32 -237 6 -363 -42 -198 -121
-424 -190 -539 l-33 -56 -111 -3 -111 -3 -22 31 c-34 48 -97 188 -134 301 -74
223 -110 452 -87 558 30 139 130 257 254 297 66 22 174 13 241 -20z m-284
-1311 c68 -82 176 -89 261 -17 l41 36 68 -12 c86 -15 182 -50 177 -65 -5 -17
-134 -55 -234 -68 -160 -21 -384 -1 -502 47 -67 26 -54 38 84 74 87 23 90 23
105 5z"/>
<path d="M459 1466 c-169 -60 -184 -268 -26 -345 134 -65 297 24 297 162 0 63
-20 107 -65 144 -59 49 -138 64 -206 39z m120 -116 c10 -5 24 -22 30 -39 16
-37 3 -64 -40 -87 -83 -43 -174 59 -103 115 28 22 83 28 113 11z"/>
</g>
</svg>
