<?xml version="1.0" standalone="no"?>
<!DOCTYPE svg PUBLIC "-//W3C//DTD SVG 20010904//EN"
 "http://www.w3.org/TR/2001/REC-SVG-20010904/DTD/svg10.dtd">
<svg version="1.0" xmlns="http://www.w3.org/2000/svg"
 width="192.000000pt" height="192.000000pt" viewBox="0 0 192.000000 192.000000"
 preserveAspectRatio="xMidYMid meet">

<g transform="translate(0.000000,192.000000) scale(0.100000,-0.100000)"
fill="#000000" stroke="none">
<path d="M631 1462 c-12 -9 -35 -53 -50 -97 l-29 -80 -158 -5 c-158 -5 -159
-5 -223 -40 -44 -23 -75 -50 -101 -85 -65 -88 -65 -89 -65 -420 l0 -300 35
-64 c23 -44 50 -75 85 -101 93 -69 46 -65 840 -65 l720 0 64 35 c44 23 75 50
101 85 65 88 65 89 65 420 l0 300 -34 64 c-36 65 -93 118 -161 148 -25 12 -82
18 -199 22 l-163 6 -30 75 c-49 126 -28 120 -377 120 -270 0 -301 -2 -320 -18z
m609 -202 l38 -95 193 -5 c182 -5 196 -6 232 -29 21 -13 50 -42 65 -64 l27
-40 3 -276 c3 -274 3 -276 -21 -321 -13 -25 -43 -58 -66 -75 l-43 -30 -697 -3
-697 -3 -44 24 c-25 13 -58 43 -75 66 l-30 43 -3 276 c-3 275 -3 277 21 322
13 25 43 59 66 75 l43 30 192 3 192 3 34 100 35 99 249 -2 248 -3 38 -95z"/>
<path d="M1280 1080 c-11 -11 -20 -29 -20 -40 0 -11 9 -29 20 -40 18 -18 33
-20 170 -20 137 0 152 2 170 20 11 11 20 29 20 40 0 11 -9 29 -20 40 -18 18
-33 20 -170 20 -137 0 -152 -2 -170 -20z"/>
<path d="M887 1070 c-56 -15 -108 -44 -151 -87 -122 -120 -122 -325 0 -447
122 -122 326 -122 448 0 122 122 122 326 0 448 -73 73 -201 110 -297 86z m151
-125 c104 -44 151 -167 103 -270 -56 -122 -220 -154 -320 -62 -76 70 -80 208
-8 286 52 56 151 76 225 46z"/>
</g>
</svg>
