<?xml version="1.0" standalone="no"?>
<!DOCTYPE svg PUBLIC "-//W3C//DTD SVG 20010904//EN"
 "http://www.w3.org/TR/2001/REC-SVG-20010904/DTD/svg10.dtd">
<svg version="1.0" xmlns="http://www.w3.org/2000/svg"
 width="192.000000pt" height="192.000000pt" viewBox="0 0 192.000000 192.000000"
 preserveAspectRatio="xMidYMid meet">

<g transform="translate(0.000000,192.000000) scale(0.100000,-0.100000)"
fill="#000000" stroke="none">
<path d="M375 1786 c-37 -17 -70 -52 -84 -89 -6 -16 -11 -97 -11 -182 l0 -154
-37 -11 c-66 -18 -139 -67 -175 -117 -65 -90 -63 -75 -63 -558 l0 -440 35 -64
c23 -44 50 -75 85 -101 89 -65 87 -65 440 -65 l320 0 64 35 c44 23 75 50 101
85 67 91 65 75 65 560 l0 440 -35 64 c-47 87 -118 139 -227 167 -8 2 -13 53
-15 173 -3 185 -7 197 -72 245 -25 19 -44 21 -194 23 -124 2 -175 -1 -197 -11z
m333 -118 c8 -8 12 -54 12 -140 l0 -128 -160 0 -160 0 0 128 c0 86 4 132 12
140 8 8 56 12 148 12 92 0 140 -4 148 -12z m183 -451 c24 -13 58 -43 74 -66
l30 -43 3 -417 3 -416 -24 -45 c-13 -25 -43 -58 -66 -75 l-43 -30 -296 -3
c-296 -3 -297 -3 -342 21 -25 13 -58 43 -75 66 l-30 43 -3 415 c-3 407 -2 416
19 459 23 48 70 90 116 104 15 4 154 9 309 9 276 1 282 1 325 -22z"/>
<path d="M245 1048 c-3 -7 -4 -168 -3 -358 3 -299 5 -345 18 -345 13 0 15 46
15 354 0 275 -3 355 -12 358 -7 3 -15 -1 -18 -9z"/>
<path d="M825 1048 c-3 -7 -4 -168 -3 -358 3 -299 5 -345 18 -345 13 0 15 46
15 354 0 275 -3 355 -12 358 -7 3 -15 -1 -18 -9z"/>
<path d="M545 928 c-3 -7 -4 -115 -3 -238 3 -192 5 -225 18 -225 13 0 15 33
15 234 0 179 -3 235 -12 238 -7 3 -15 -1 -18 -9z"/>
</g>
</svg>
